<mxfile host="app.diagrams.net" modified="2024-05-29T17:09:29.966Z" agent="Mozilla/5.0 (Macintosh; Intel Mac OS X 10_15_7) AppleWebKit/537.36 (KHTML, like Gecko) Chrome/125.0.0.0 Safari/537.36" etag="TmOX4NCxHgdkcHZ2-Hcx" version="24.4.9" type="github">
  <diagram name="Page-1" id="BYTXbC25DRY8ZI2Z7DPX">
    <mxGraphModel dx="1026" dy="1726" grid="1" gridSize="10" guides="1" tooltips="1" connect="1" arrows="1" fold="1" page="1" pageScale="1" pageWidth="827" pageHeight="1169" math="0" shadow="0">
      <root>
        <mxCell id="0" />
        <mxCell id="1" parent="0" />
        <mxCell id="M__pvSeYkyBA2umGWvLx-5" value="Geograph/Locations &amp;amp;Room/Space&lt;div&gt;POST&lt;/div&gt;" style="rounded=1;whiteSpace=wrap;html=1;" vertex="1" parent="1">
          <mxGeometry x="100" y="300" width="120" height="60" as="geometry" />
        </mxCell>
        <mxCell id="M__pvSeYkyBA2umGWvLx-6" value="" style="rounded=1;whiteSpace=wrap;html=1;" vertex="1" parent="1">
          <mxGeometry x="324" y="290" width="180" height="60" as="geometry" />
        </mxCell>
        <mxCell id="M__pvSeYkyBA2umGWvLx-7" value="iomp-order-service" style="text;html=1;align=center;verticalAlign=middle;whiteSpace=wrap;rounded=0;" vertex="1" parent="1">
          <mxGeometry x="350" y="307.5" width="110" height="25" as="geometry" />
        </mxCell>
        <mxCell id="M__pvSeYkyBA2umGWvLx-9" value="Location" style="swimlane;fontStyle=0;childLayout=stackLayout;horizontal=1;startSize=30;horizontalStack=0;resizeParent=1;resizeParentMax=0;resizeLast=0;collapsible=1;marginBottom=0;whiteSpace=wrap;html=1;" vertex="1" parent="1">
          <mxGeometry x="480" y="370" width="150" height="150" as="geometry" />
        </mxCell>
        <mxCell id="M__pvSeYkyBA2umGWvLx-10" value="code" style="text;strokeColor=none;fillColor=none;align=left;verticalAlign=middle;spacingLeft=4;spacingRight=4;overflow=hidden;points=[[0,0.5],[1,0.5]];portConstraint=eastwest;rotatable=0;whiteSpace=wrap;html=1;" vertex="1" parent="M__pvSeYkyBA2umGWvLx-9">
          <mxGeometry y="30" width="150" height="30" as="geometry" />
        </mxCell>
        <mxCell id="M__pvSeYkyBA2umGWvLx-11" value="name" style="text;strokeColor=none;fillColor=none;align=left;verticalAlign=middle;spacingLeft=4;spacingRight=4;overflow=hidden;points=[[0,0.5],[1,0.5]];portConstraint=eastwest;rotatable=0;whiteSpace=wrap;html=1;" vertex="1" parent="M__pvSeYkyBA2umGWvLx-9">
          <mxGeometry y="60" width="150" height="30" as="geometry" />
        </mxCell>
        <mxCell id="M__pvSeYkyBA2umGWvLx-20" value="category" style="text;strokeColor=none;fillColor=none;align=left;verticalAlign=middle;spacingLeft=4;spacingRight=4;overflow=hidden;points=[[0,0.5],[1,0.5]];portConstraint=eastwest;rotatable=0;whiteSpace=wrap;html=1;" vertex="1" parent="M__pvSeYkyBA2umGWvLx-9">
          <mxGeometry y="90" width="150" height="30" as="geometry" />
        </mxCell>
        <mxCell id="M__pvSeYkyBA2umGWvLx-12" value="project_id" style="text;strokeColor=none;fillColor=none;align=left;verticalAlign=middle;spacingLeft=4;spacingRight=4;overflow=hidden;points=[[0,0.5],[1,0.5]];portConstraint=eastwest;rotatable=0;whiteSpace=wrap;html=1;" vertex="1" parent="M__pvSeYkyBA2umGWvLx-9">
          <mxGeometry y="120" width="150" height="30" as="geometry" />
        </mxCell>
        <mxCell id="M__pvSeYkyBA2umGWvLx-13" value="" style="shape=flexArrow;endArrow=classic;startArrow=classic;html=1;rounded=0;" edge="1" parent="1">
          <mxGeometry width="100" height="100" relative="1" as="geometry">
            <mxPoint x="220" y="320" as="sourcePoint" />
            <mxPoint x="320" y="320" as="targetPoint" />
          </mxGeometry>
        </mxCell>
        <mxCell id="M__pvSeYkyBA2umGWvLx-14" value="" style="shape=flexArrow;endArrow=classic;startArrow=classic;html=1;rounded=0;" edge="1" parent="1">
          <mxGeometry width="100" height="100" relative="1" as="geometry">
            <mxPoint x="504" y="319.5" as="sourcePoint" />
            <mxPoint x="600" y="320" as="targetPoint" />
          </mxGeometry>
        </mxCell>
        <mxCell id="M__pvSeYkyBA2umGWvLx-16" value="Room" style="swimlane;fontStyle=0;childLayout=stackLayout;horizontal=1;startSize=30;horizontalStack=0;resizeParent=1;resizeParentMax=0;resizeLast=0;collapsible=1;marginBottom=0;whiteSpace=wrap;html=1;" vertex="1" parent="1">
          <mxGeometry x="670" y="370" width="140" height="160" as="geometry" />
        </mxCell>
        <mxCell id="M__pvSeYkyBA2umGWvLx-17" value="roomId" style="text;strokeColor=none;fillColor=none;align=left;verticalAlign=middle;spacingLeft=4;spacingRight=4;overflow=hidden;points=[[0,0.5],[1,0.5]];portConstraint=eastwest;rotatable=0;whiteSpace=wrap;html=1;" vertex="1" parent="M__pvSeYkyBA2umGWvLx-16">
          <mxGeometry y="30" width="140" height="30" as="geometry" />
        </mxCell>
        <mxCell id="M__pvSeYkyBA2umGWvLx-18" value="name" style="text;strokeColor=none;fillColor=none;align=left;verticalAlign=middle;spacingLeft=4;spacingRight=4;overflow=hidden;points=[[0,0.5],[1,0.5]];portConstraint=eastwest;rotatable=0;whiteSpace=wrap;html=1;" vertex="1" parent="M__pvSeYkyBA2umGWvLx-16">
          <mxGeometry y="60" width="140" height="30" as="geometry" />
        </mxCell>
        <mxCell id="M__pvSeYkyBA2umGWvLx-24" value="location_id" style="text;strokeColor=none;fillColor=none;align=left;verticalAlign=middle;spacingLeft=4;spacingRight=4;overflow=hidden;points=[[0,0.5],[1,0.5]];portConstraint=eastwest;rotatable=0;whiteSpace=wrap;html=1;" vertex="1" parent="M__pvSeYkyBA2umGWvLx-16">
          <mxGeometry y="90" width="140" height="30" as="geometry" />
        </mxCell>
        <mxCell id="M__pvSeYkyBA2umGWvLx-21" value="project_id" style="text;strokeColor=none;fillColor=none;align=left;verticalAlign=middle;spacingLeft=4;spacingRight=4;overflow=hidden;points=[[0,0.5],[1,0.5]];portConstraint=eastwest;rotatable=0;whiteSpace=wrap;html=1;" vertex="1" parent="M__pvSeYkyBA2umGWvLx-16">
          <mxGeometry y="120" width="140" height="30" as="geometry" />
        </mxCell>
        <mxCell id="M__pvSeYkyBA2umGWvLx-19" value="&lt;span style=&quot;color: rgba(0, 0, 0, 0); font-family: monospace; font-size: 0px; text-wrap: nowrap;&quot;&gt;%3CmxGraphModel%3E%3Croot%3E%3CmxCell%20id%3D%220%22%2F%3E%3CmxCell%20id%3D%221%22%20parent%3D%220%22%2F%3E%3CmxCell%20id%3D%222%22%20value%3D%22project_id%22%20style%3D%22text%3BstrokeColor%3Dnone%3BfillColor%3Dnone%3Balign%3Dleft%3BverticalAlign%3Dmiddle%3BspacingLeft%3D4%3BspacingRight%3D4%3Boverflow%3Dhidden%3Bpoints%3D%5B%5B0%2C0.5%5D%2C%5B1%2C0.5%5D%5D%3BportConstraint%3Deastwest%3Brotatable%3D0%3BwhiteSpace%3Dwrap%3Bhtml%3D1%3B%22%20vertex%3D%221%22%20parent%3D%221%22%3E%3CmxGeometry%20x%3D%22610%22%20y%3D%22130%22%20width%3D%22160%22%20height%3D%2230%22%20as%3D%22geometry%22%2F%3E%3C%2FmxCell%3E%3C%2Froot%3E%3C%2FmxGraphModel%3E&lt;/span&gt;" style="text;strokeColor=none;fillColor=none;align=left;verticalAlign=middle;spacingLeft=4;spacingRight=4;overflow=hidden;points=[[0,0.5],[1,0.5]];portConstraint=eastwest;rotatable=0;whiteSpace=wrap;html=1;" vertex="1" parent="M__pvSeYkyBA2umGWvLx-16">
          <mxGeometry y="150" width="140" height="10" as="geometry" />
        </mxCell>
        <mxCell id="M__pvSeYkyBA2umGWvLx-25" value="DB" style="shape=cylinder3;whiteSpace=wrap;html=1;boundedLbl=1;backgroundOutline=1;size=15;" vertex="1" parent="1">
          <mxGeometry x="600" y="280" width="60" height="80" as="geometry" />
        </mxCell>
        <mxCell id="M__pvSeYkyBA2umGWvLx-46" value="&lt;pre style=&quot;margin-top: 0px;&quot;&gt;&lt;font style=&quot;font-size: 8px;&quot; face=&quot;Verdana&quot;&gt;{&lt;br&gt;&lt;/font&gt;&lt;font size=&quot;3&quot; face=&quot;Lv7snBzfe4WO6jD27K0s&quot;&gt;&amp;nbsp; &amp;nbsp;&quot;locations&quot;:[&lt;br&gt;&lt;/font&gt;&lt;font size=&quot;3&quot; face=&quot;Lv7snBzfe4WO6jD27K0s&quot;&gt;&amp;nbsp; &amp;nbsp; &amp;nbsp; {&lt;br&gt;&lt;/font&gt;&lt;font size=&quot;3&quot; face=&quot;Lv7snBzfe4WO6jD27K0s&quot;&gt;&amp;nbsp; &amp;nbsp; &amp;nbsp; &amp;nbsp; &amp;nbsp;&quot;locationName&quot;:&quot;Banglore, KA&quot;,&lt;br&gt;&lt;/font&gt;&lt;font size=&quot;3&quot; face=&quot;Lv7snBzfe4WO6jD27K0s&quot;&gt;&amp;nbsp; &amp;nbsp; &amp;nbsp; &amp;nbsp; &amp;nbsp;&quot;roomName&quot;:&quot;Room1&quot;&lt;br&gt;&lt;/font&gt;&lt;font size=&quot;3&quot; face=&quot;Lv7snBzfe4WO6jD27K0s&quot;&gt;&amp;nbsp; &amp;nbsp; &amp;nbsp; },&lt;br&gt;&lt;/font&gt;&lt;font size=&quot;3&quot; face=&quot;Lv7snBzfe4WO6jD27K0s&quot;&gt;&amp;nbsp; &amp;nbsp; &amp;nbsp; {&lt;br&gt;&lt;/font&gt;&lt;font size=&quot;3&quot; face=&quot;Lv7snBzfe4WO6jD27K0s&quot;&gt;&amp;nbsp; &amp;nbsp; &amp;nbsp; &amp;nbsp; &amp;nbsp;&quot;locationName&quot;:&quot;Banglore, KA&quot;,&lt;br&gt;&lt;/font&gt;&lt;font size=&quot;3&quot; face=&quot;Lv7snBzfe4WO6jD27K0s&quot;&gt;&amp;nbsp; &amp;nbsp; &amp;nbsp; &amp;nbsp; &amp;nbsp;&quot;roomName&quot;:&quot;Room2&quot;&lt;br&gt;&lt;/font&gt;&lt;font size=&quot;3&quot; face=&quot;Lv7snBzfe4WO6jD27K0s&quot;&gt;&amp;nbsp; &amp;nbsp; &amp;nbsp; },&lt;br&gt;&lt;/font&gt;&lt;font size=&quot;3&quot; face=&quot;Lv7snBzfe4WO6jD27K0s&quot;&gt;&amp;nbsp; &amp;nbsp; &amp;nbsp; {&lt;br&gt;&lt;/font&gt;&lt;font size=&quot;3&quot; face=&quot;Lv7snBzfe4WO6jD27K0s&quot;&gt;&amp;nbsp; &amp;nbsp; &amp;nbsp; &amp;nbsp; &amp;nbsp;&quot;locationName&quot;:&quot;Hyderabad&quot;,&lt;br&gt;&lt;/font&gt;&lt;font size=&quot;3&quot; face=&quot;Lv7snBzfe4WO6jD27K0s&quot;&gt;&amp;nbsp; &amp;nbsp; &amp;nbsp; &amp;nbsp; &amp;nbsp;&quot;roomName&quot;:&quot;Conference Room1&quot;&lt;br&gt;&lt;/font&gt;&lt;font size=&quot;3&quot; face=&quot;Lv7snBzfe4WO6jD27K0s&quot;&gt;&amp;nbsp; &amp;nbsp; &amp;nbsp; }&lt;br&gt;&lt;/font&gt;&lt;font size=&quot;3&quot; face=&quot;Lv7snBzfe4WO6jD27K0s&quot;&gt;&amp;nbsp; &amp;nbsp;]&lt;br&gt;&lt;/font&gt;&lt;font size=&quot;3&quot; face=&quot;Lv7snBzfe4WO6jD27K0s&quot;&gt;}&lt;/font&gt;&lt;/pre&gt;" style="text;html=1;whiteSpace=wrap;overflow=hidden;rounded=0;align=left;" vertex="1" parent="1">
          <mxGeometry x="150" y="-30" width="280" height="320" as="geometry" />
        </mxCell>
      </root>
    </mxGraphModel>
  </diagram>
</mxfile>
